<svg xmlns="http://www.w3.org/2000/svg" width="200" height="299.8" viewBox="0 0 200 299.8"><path d="M69.8 245.1c-1.8 0-3.4 1.2-4 2.7l-8.1 20.4-.7 2.3-.6-2.4-6.2-19.8c0-.1-.1-.1-.1-.2v-.1c-.6-1.7-2.2-2.8-4-2.8h-10c-2.3.1-4.1 2-4.1 4.3 0 .6.3 1.4.5 2.2l1.3 4.2-4.9 12.4-.8 2.3-.6-2.3-6.2-19.9c-.1-.1-.1-.1-.1-.2v-.1c-.6-1.7-2.2-2.8-4-2.8H7.1c-2.2.1-4.1 2-4.1 4.3 0 .6.2 1.4.5 2.2l15.1 44.9c.4 1.8 2.1 3.2 4.1 3.2 1.9 0 3.5-1.2 4-3l10.6-26.6.8-2.4.6 2.3 8.9 26.4c.5 1.8 2.1 3.2 4.1 3.2 1.9 0 3.5-1.3 4.1-3.1l17.9-45.5c.3-.6.4-1.2.4-1.8 0-2.4-1.9-4.3-4.3-4.3zM144.9 245.1c-1.8 0-3.4 1.2-4 2.7l-8 20.4-.8 2.3-.6-2.4-6.3-19.8V248c-.6-1.7-2.2-2.8-4-2.8h-10.1c-2.3.1-4 2-4 4.3 0 .6.2 1.4.5 2.2l1.3 4.2-5 12.4-.8 2.3-.6-2.3-6.2-19.9c-.1-.1-.1-.1-.1-.2v-.1c-.6-1.7-2.1-2.8-4-2.8h-10c-2.3.1-4.1 2-4.1 4.3 0 .6.3 1.4.5 2.2l15.1 44.9c.4 1.8 2.1 3.2 4.1 3.2 1.9 0 3.5-1.2 4-3l10.5-26.6.7-2.4.7 2.3 8.9 26.4c.5 1.8 2.1 3.2 4.1 3.2 1.9 0 3.6-1.3 4.1-3.1l17.9-45.5c.3-.6.4-1.2.4-1.8.1-2.4-1.8-4.3-4.2-4.3zM193.7 245.2h-35.2c-2 0-3.7 1.6-3.7 3.7v46.8c.1 2.1 1.8 3.8 3.9 3.8h10c2.2-.1 3.8-1.8 3.9-4v-21.8h14.3c2.1 0 3.8-1.7 3.8-3.9 0-2.1-1.7-3.8-3.9-3.8h-14.2v-12.5h21.3c2.2-.1 3.9-1.9 3.9-4.1.1-2.4-1.8-4.2-4.1-4.2zM139.1 96.1c6.4 7.2 7.1 28.5 23.2 20 9.7-5.1 9.5-26.7-3.4-34.4-10.5-6.2-16.2 2.2-20 12.4-.2.8-.2 1.6.2 2zM114.1 92.7c-6.7 5.6-11.4 20.9-23.7 15.7-10-5.1-11-24.9 6.3-34.1 12-5.5 18.1 5.4 18.2 17-.1.5-.5 1.1-.8 1.4zM130.7 131.8c6.6-.7 5.1-6.8.1-8.4-4.5-1.3-11.3-2.2-16.2-2.1-8.5.2-8.3 6.7-3.9 7.8 3.4 1.1 5.5 1.6 8.4 5.3 2.8 5.1 1.6-1.6 11.6-2.6zM162.1 21.4c8.3-13.9 22.9-11.2 30.2-4.3 8 7.5 9.3 16.2 6.2 22.3-4.2 8.2-14.9 18.2-21.8 8.5-3.1-4.3-9.6-9.3-13.2-10.8-5.5-2.2-6.5-7.2-1.4-15.7z"/><path d="M195.3 82.7c-.7-2.5-2-2.3-1.9-.3.7 25.3-14.5 52.5-46.8 52.7-8.3 0-5.8 13.3-20.9 6.6-10.9-7.3-17.1 7.1-24.9-8.4-1.7-4.5-4.2-6.3-7.5-7.1-32-7.9-42.2-51.9-14-87.5 5.6 3.3 7.6 3.8 13.6-1.6 3.1-2.9 8.3-6 11.1-7.1 6.8-2.6 10.5-5.5 4.6-18.4-7.5-16.8-22.9-12-30-6.2C70.7 12 65.1 22.5 75.3 35 46.6 54.2 41.7 78 42.4 98.6c.7 21.9-4.9 20.1 2.1 42.4.6 2-.7 1.9-1.8 1.3-29.9-19.1-46-77.4.5-109.6 1.1-.9.6-2.2-3.2.1C-.3 54.1-4 95.4 2.7 123.2 6 136.7 1 139.1 6.2 156.8c12 36.9 22.2 39.8 36.6 40.8 26.3 0 8.5-14.5 9.4-32.7 0-1.1 1.3-1.6 2 .6 14.5 32.4 24.7 62 62.7 59.2 22-2.9 9.8-13.8 8.5-20-16.2-53.7 23.1-66.4 12-14-7.3 30 15.9 27 32.2 16.2 16.9-11 37.9-84 25.7-124.2m-64 63.5c-3.6 9.6-22.5 6.3-23.1-3 0-.4.5-.3.7-.2 8.4 2 16.4 2.9 21.8 2.9.2 0 .7-.1.6.3z"/><path d="M46.9 211.3c0 3.9-3.2 7-7 7-3.9 0-7-3.1-7-7s3.1-7 7-7c3.8 0 7 3.2 7 7m-7-8.4c-4.7 0-8.4 3.8-8.4 8.4 0 4.7 3.8 8.5 8.4 8.5 4.7 0 8.4-3.8 8.4-8.5 0-4.6-3.8-8.4-8.4-8.4z"/><path d="M42.3 212.7c-.2 1-1 1.7-2.2 1.7-1.6 0-2.7-1.4-2.7-3.1 0-1.7.9-3 2.6-3 1.1 0 2 .7 2.2 1.7h1.2c-.2-1.9-1.7-2.9-3.4-2.9-2.5 0-4 1.8-4 4.2 0 2.4 1.6 4.3 4 4.3 1.7 0 3.1-1.1 3.4-2.9h-1.1zM195.1 231.5c0 3.9-3.2 7-7 7-3.9 0-7.1-3.1-7.1-7s3.2-7 7.1-7c3.9 0 7 3.1 7 7m-7-8.5c-4.7 0-8.4 3.8-8.4 8.4 0 4.7 3.7 8.4 8.4 8.4 4.6 0 8.4-3.7 8.4-8.4 0-4.6-3.8-8.4-8.4-8.4z"/><path d="M186.6 232h1.4l2.1 3.4h1.3l-2.3-3.5c1.2-.1 2.1-.8 2.1-2.2 0-1.6-.9-2.3-2.8-2.3h-3.1v7.9h1.2V232m.1-1v-2.5h1.6c.8 0 1.7.2 1.7 1.2 0 1.2-.9 1.3-2 1.3h-1.3z"/></svg>